<?xml version="1.0" encoding="UTF-8" standalone="no"?>
<!-- Created with Inkscape (http://www.inkscape.org/) -->

<svg
   width="98.929588mm"
   height="106.40706mm"
   viewBox="0 0 98.929588 106.40706"
   version="1.1"
   id="svg1"
   xml:space="preserve"
   xmlns="http://www.w3.org/2000/svg"
   xmlns:svg="http://www.w3.org/2000/svg"><defs
     id="defs1" /><g
     id="layer1"
     transform="translate(-55.574784,-95.227726)"><g
       transform="matrix(0.03527778,0,0,-0.03527778,13.065061,237.36025)"
       fill="#000000"
       stroke="none"
       id="g11"><path
         d="m 2490,4023 c -137,-15 -321,-66 -405,-112 -22,-12 -31,-19 -20,-16 11,4 65,23 120,41 142,49 255,67 415,66 291,-2 573,-92 838,-268 62,-42 115,-74 117,-72 8,8 -145,118 -238,171 -259,146 -570,218 -827,190 z"
         id="path1" /><path
         d="m 2320,3853 c -479,-83 -895,-456 -1053,-943 -53,-164 -62,-224 -62,-430 1,-160 4,-198 24,-280 64,-255 190,-479 375,-664 355,-355 803,-481 1329,-375 248,50 431,151 622,343 214,216 338,454 422,806 28,118 41,379 26,505 -6,55 -8,26 -8,-130 0,-220 -14,-310 -77,-499 -152,-453 -520,-846 -909,-970 -314,-99 -672,-83 -971,44 -91,39 -210,117 -325,214 -105,87 -129,114 -57,63 56,-40 122,-70 140,-63 6,2 43,-14 80,-36 177,-103 336,-164 504,-194 104,-18 358,-15 415,5 27,9 24,10 -20,6 -163,-15 -210,-16 -304,-5 -369,41 -724,244 -905,518 -191,290 -251,739 -141,1061 66,194 183,381 329,526 357,354 817,463 1229,291 45,-18 109,-45 142,-60 33,-14 77,-26 97,-26 30,0 47,-9 91,-50 122,-112 214,-262 281,-461 45,-135 64,-222 81,-384 l 14,-130 -4,118 c -7,161 -41,375 -75,469 -29,78 -97,199 -167,293 l -37,50 48,-45 c 83,-79 198,-264 256,-411 58,-147 86,-353 70,-521 -11,-108 -86,-435 -122,-528 -50,-129 -161,-265 -324,-396 -98,-79 -131,-113 -73,-77 258,164 452,429 543,744 68,236 56,557 -30,785 -64,170 -178,354 -300,483 l -72,76 -29,-28 -29,-27 -40,30 c -21,16 -47,30 -56,30 -9,0 -43,15 -75,34 -81,47 -232,101 -338,121 -108,21 -328,16 -443,-9 -462,-101 -842,-455 -1001,-932 -50,-150 -64,-235 -64,-399 -1,-150 15,-277 48,-389 8,-27 13,-51 12,-53 -7,-6 -47,76 -75,157 -41,116 -56,220 -55,375 1,451 239,876 631,1130 246,158 572,228 848,180 96,-17 255,-67 344,-109 57,-27 80,-22 80,15 0,38 -244,132 -410,159 -93,14 -330,11 -430,-7 z"
         id="path2" /><path
         d="m 2590,3468 v -243 l 68,-13 c 37,-7 105,-31 152,-54 68,-33 101,-58 165,-122 95,-97 140,-169 172,-279 46,-157 29,-330 -47,-476 -52,-100 -113,-168 -206,-230 -69,-47 -206,-101 -254,-101 -51,0 -50,3 -50,-235 0,-174 3,-225 13,-234 20,-16 207,4 314,34 48,14 136,49 195,79 59,29 109,51 112,48 35,-35 -57,-126 -172,-170 -137,-53 -221,-67 -392,-67 -132,0 -167,4 -240,24 -231,64 -424,197 -515,353 -20,35 -33,52 -29,38 9,-35 33,-79 63,-120 l 26,-34 -47,32 c -69,47 -177,157 -227,230 -78,115 -151,293 -151,369 0,13 -5,23 -10,23 -34,0 -43,-159 -16,-255 46,-157 179,-350 316,-459 149,-117 375,-216 574,-251 226,-39 505,-6 698,82 72,33 84,43 120,97 23,34 87,105 144,159 120,114 190,199 251,305 67,119 83,181 83,332 0,75 -4,131 -10,135 -5,3 -10,21 -11,38 0,18 -11,-15 -24,-73 -59,-270 -154,-449 -328,-617 -73,-72 -75,-73 -102,-59 -31,16 -38,15 -114,-31 -105,-63 -288,-123 -378,-123 -35,0 -43,3 -43,19 0,27 16,36 104,60 142,39 346,150 346,188 0,10 -12,27 -27,39 l -28,23 48,49 c 27,27 45,52 40,55 -6,4 -30,-14 -54,-39 -62,-65 -151,-123 -244,-161 -106,-43 -117,-43 -113,3 3,33 7,37 61,59 99,40 168,87 255,173 46,45 86,82 90,82 4,0 25,-14 46,-30 22,-17 43,-30 47,-30 13,0 79,138 108,227 69,212 63,419 -20,635 -30,76 -31,82 -14,94 23,17 14,43 -40,119 -64,90 -89,111 -119,97 -13,-6 -36,-27 -51,-46 l -27,-36 50,-67 c 27,-38 61,-91 75,-119 61,-121 95,-339 77,-495 -11,-98 -18,-116 -44,-106 -13,5 -15,15 -9,49 16,90 8,259 -16,338 -69,225 -236,406 -456,491 -38,15 -71,32 -73,38 -2,5 7,18 19,28 67,55 88,76 84,83 -3,4 -22,11 -42,14 -65,12 -73,16 -73,42 0,30 16,31 106,3 87,-27 152,-59 232,-116 l 62,-44 28,32 c 46,55 46,54 -20,104 -110,82 -329,175 -414,175 -13,0 -30,15 -45,37 -47,72 -49,64 -49,-199 z"
         id="path3" /><path
         d="m 2231,3400 c -89,-31 -211,-99 -274,-153 -36,-32 -37,-33 -26,-74 11,-40 9,-46 -23,-100 -32,-55 -36,-58 -74,-58 -37,0 -40,-2 -69,-57 -27,-52 -28,-59 -14,-70 9,-7 28,-30 44,-50 37,-51 69,-51 85,-2 36,108 199,287 313,344 61,30 62,30 71,10 11,-25 13,-25 75,0 28,11 79,23 113,27 l 63,8 3,38 3,37 h -48 c -27,0 -74,-6 -104,-14 -31,-8 -62,-16 -70,-18 -30,-7 -21,41 15,74 28,27 34,38 29,61 -3,15 -10,27 -17,26 -6,0 -49,-13 -95,-29 z"
         id="path4" /><path
         d="m 2391,3134 c -201,-54 -365,-216 -416,-410 -8,-32 -15,-97 -15,-144 0,-47 7,-112 15,-144 40,-153 152,-292 288,-360 105,-52 167,-62 284,-47 166,22 258,64 353,160 206,211 203,549 -6,757 -81,79 -182,130 -293,146 -74,11 -81,14 -81,35 0,20 -5,23 -37,22 -21,0 -62,-7 -92,-15 z m 303,-152 c 90,-42 181,-133 227,-227 33,-68 34,-73 34,-190 0,-120 0,-122 -38,-197 -45,-92 -122,-167 -217,-212 -62,-30 -71,-31 -190,-31 -119,0 -128,1 -190,31 -178,84 -270,246 -257,451 6,106 44,191 122,272 51,54 139,111 204,132 14,5 74,7 132,6 94,-3 112,-7 173,-35 z"
         id="path5" /><path
         d="m 2477,2930 c -114,-20 -222,-105 -275,-218 -23,-49 -27,-70 -27,-152 0,-75 5,-104 21,-140 31,-67 104,-142 171,-175 53,-27 67,-30 158,-30 90,0 105,3 155,29 118,61 190,175 193,306 l 2,65 -97,3 c -87,2 -98,5 -103,23 -9,26 -71,66 -115,74 -73,12 -150,-59 -150,-139 0,-103 98,-173 192,-137 37,14 77,60 84,97 6,32 9,34 45,34 36,0 39,-2 39,-29 0,-94 -155,-184 -262,-151 -61,18 -93,44 -117,93 -26,55 -27,119 -1,172 23,48 61,78 118,96 l 42,12 v 73 c 0,71 -6,105 -19,103 -3,-1 -28,-5 -54,-9 z m -22,-112 c -167,-86 -218,-282 -110,-424 36,-47 136,-94 199,-94 37,0 47,-3 36,-10 -45,-29 -157,2 -226,63 -124,109 -127,304 -8,419 37,35 99,66 134,67 8,0 -3,-9 -25,-21 z m 135,-208 c 53,-53 -16,-134 -72,-83 -10,9 -18,27 -18,40 0,26 32,63 55,63 8,0 24,-9 35,-20 z"
         id="path6" /><path
         d="m 2640,2887 c 0,-29 5,-37 30,-47 17,-7 57,-41 88,-76 49,-53 61,-62 84,-57 24,5 25,7 16,34 -21,61 -123,152 -195,174 -21,6 -23,3 -23,-28 z"
         id="path7" /><path
         d="m 3982,2915 c 0,-16 2,-22 5,-12 2,9 2,23 0,30 -3,6 -5,-1 -5,-18 z"
         id="path8" /><path
         d="m 1666,2772 c -15,-25 -28,-167 -23,-252 6,-100 40,-236 82,-327 l 24,-53 h 121 122 l 65,-59 c 120,-111 285,-189 407,-194 l 51,-2 v 34 34 l -80,18 c -101,22 -143,40 -228,96 -161,107 -278,321 -277,507 1,56 4,79 25,175 l 8,33 -81,-3 c -44,-2 -84,-7 -87,-11 -14,-14 -24,-95 -24,-198 -1,-116 21,-229 63,-323 14,-31 21,-59 16,-62 -15,-9 -47,51 -77,140 -24,72 -27,95 -27,230 -1,83 1,166 4,185 5,35 5,35 -37,38 -22,2 -44,-1 -47,-6 z"
         id="path9" /><path
         d="m 2020,2041 c 0,-5 33,-39 73,-75 65,-59 71,-67 60,-86 -7,-11 -13,-22 -13,-24 0,-7 151,-63 205,-75 28,-7 77,-13 110,-14 l 60,-2 v 35 c 0,39 7,36 -140,69 -110,26 -212,73 -287,134 -60,49 -68,53 -68,38 z"
         id="path10" /><path
         d="m 1779,1237 c 20,-25 224,-122 316,-150 174,-54 388,-83 535,-72 115,8 252,31 325,55 60,20 54,19 -65,-5 -352,-74 -756,-15 -1060,153 -36,19 -59,28 -51,19 z"
         id="path11" /></g></g></svg>
