<?xml version="1.0" encoding="UTF-8" standalone="no"?>
<svg
   width="98.929588mm"
   height="106.40706mm"
   viewBox="0 0 98.929588 106.40706"
   version="1.1"
   id="svg1"
   xml:space="preserve"
   xmlns="http://www.w3.org/2000/svg"
   xmlns:svg="http://www.w3.org/2000/svg">
  <defs id="defs1" />
  <!-- White background circle -->
  <circle cx="49.464794" cy="53.20353" r="48" fill="#ffffff" />
  <g
     id="layer1"
     transform="translate(-55.574784,-95.227726)">
    <g
       transform="matrix(0.03527778,0,0,-0.03527778,13.065061,237.36025)"       
       fill="#000000"
       stroke="none"
       id="g11">
      <path
         d="m 2490,4023 c -137,-15 -321,-66 -405,-112 -22,-12 -31,-19 -20,-16 11,4 65,23 120,41 142,49 255,67 415,66 291,-2 573,-92 838,-268 62,-42 115,-74 117,-72 8,8 -145,118 -238,171 -259,146 -570,218 -827,190z"
         id="path11" />
    </g>
  </g>
</svg>
